<svg xmlns="http://www.w3.org/2000/svg" viewBox="0 0 483.29 84.5"><defs><style>.cls-1{fill:#1d1d1b;}.cls-2{fill:#e0303b;}</style></defs><g id="Слой_2" data-name="Слой 2"><g id="Layer_1" data-name="Layer 1"><path class="cls-1" d="M279,69h-3.58l-2,10.21c-.39,1.92-1.66,2.11-2.24,2.11a1.92,1.92,0,0,1-1.66-.84l-2.57,2.2a4.82,4.82,0,0,0,4.2,1.79c1.34,0,4.87-.39,5.82-5.13L279,69Zm14,0H289.4l-1.94,9.67c-.32,1.6-1,2.63-2.5,2.63a1.44,1.44,0,0,1-1.53-1.59,6.11,6.11,0,0,1,.08-.87l2-9.84h-3.58L280,78.68a8.83,8.83,0,0,0-.13,1.34c0,2.6,2,4.48,4.89,4.48,2.74,0,5.43-1.49,6.23-5.5l2-10Zm12.35,1.78a5.7,5.7,0,0,0-4.59-1.91c-3.69,0-6.29,2-6.29,5.38,0,1.19.47,3,3.57,3.77l1.17.31c.84.21,1.29.49,1.29,1.31s-1,1.66-2.44,1.66a3.92,3.92,0,0,1-3.16-1.21l-2.59,2.27c1.34,1.52,2.87,2.11,5.43,2.11,3.28,0,6.36-1.49,6.36-5.2,0-2.19-.89-3.44-3.58-4.13l-1.16-.31c-.63-.17-1.32-.34-1.32-1.16s.84-1.68,2.31-1.68a2.91,2.91,0,0,1,2.5,1l2.5-2.2ZM318.2,69H307.45l-.65,3.16h3.66L308,84.37h3.57L314,72.19h3.51L318.2,69Zm16.35,4.82a4.63,4.63,0,0,0-4.91-4.95,6.15,6.15,0,0,0-4.46,1.81c-1.23,1.22-1.62,2.3-2.35,6A18.55,18.55,0,0,0,322.4,80c0,2.12,1.4,4.49,4.91,4.49a6.08,6.08,0,0,0,4.35-1.77c1.3-1.29,1.79-2.67,2.25-5.06l.38-2.07h-5.73l-.56,3h2.18l-.07.32a2.76,2.76,0,0,1-2.56,2.46A1.4,1.4,0,0,1,326,79.74a17.48,17.48,0,0,1,.41-3c.47-2.27.69-3.26,1.4-4a2.31,2.31,0,0,1,1.61-.69c1,0,1.51.73,1.55,1.81Zm12.37,10.52L344.66,69h-2.78l-8.36,15.34h3.81L338.52,82h4.54l.22,2.42Zm-4.14-5.32H340l2.33-4.53.47,4.53Zm18.73-5.59c0-2.37-1.18-4.43-4.39-4.43h-5.46l-3.08,15.34h3.58l1.19-5.82h1.35l1.62,5.82h3.92l-2.05-6.27a5.12,5.12,0,0,0,3.32-4.64Zm-3.6.2a1.93,1.93,0,0,1-2.11,1.91h-1.87l.69-3.36h1.89a1.28,1.28,0,0,1,1.4,1.45Zm17.31-.28c0-2.8-1.83-4.35-4.65-4.35h-5.15l-3.08,15.34H368a5.94,5.94,0,0,0,4.37-1.57c1.29-1.3,1.61-2.27,2.37-6.1a19.8,19.8,0,0,0,.49-3.32Zm-3.61.34a20,20,0,0,1-.46,3c-.54,2.8-.77,3.38-1.23,3.83a2.38,2.38,0,0,1-1.78.69h-1.58l1.81-9H370a1.45,1.45,0,0,1,1.64,1.55ZM389.05,69h-9.89l-3.09,15.34h10.05l.62-3.15H380.3l.6-3h5.45l.63-3.14h-5.45l.58-2.89h6.31l.63-3.14Zm20.08,0h-3.79l-3.52,8.31L401.09,69h-2.54l-4.05,8.31L394.19,69h-3.68l1,15.34h2.9l4-7.78.8,7.78h2.91l7-15.34Zm5.32,0h-3.57L407.8,84.37h3.57L414.45,69Zm14.82,0H425.7l-1.6,8-3.27-8h-3l-3.08,15.34h3.58l1.61-8,3.26,8h3L429.27,69Zm13.31,0h-9.89l-3.08,15.34h10l.63-3.15h-6.44l.6-3h5.45l.63-3.14h-5.46l.59-2.89H442l.62-3.14Zm10.76,0h-3.58l-3.08,15.34h3.58L453.34,69Zm12.76,0H455.34l-.64,3.16h3.66l-2.43,12.18h3.57l2.44-12.18h3.51L466.1,69Zm6.53,0h-4.22l-1.1,10.23h2.41L472.63,69ZM469.94,80.9h-3.45l-.67,3.47h3.45l.67-3.47Z"/><path class="cls-2" d="M482,0H448.64a3.17,3.17,0,0,0-1.8.69L437.63,8.5a3.25,3.25,0,0,0-1,1.67l-6.82,38.68a2.2,2.2,0,0,0,.4,1.67l6.46,7.8a2.12,2.12,0,0,0,1.55.7h33.35a1.88,1.88,0,0,0,1.83-1.56l2-11.14a1.25,1.25,0,0,0-1.28-1.55H446.27a.71.71,0,0,1-.73-.88l1.25-7.13a1.07,1.07,0,0,1,1-.89h23.62a1.88,1.88,0,0,0,1.83-1.55L475,24.78a1.25,1.25,0,0,0-1.28-1.55H450.06c-.88,0-.72-.89-.72-.89l1.25-7.12a1.07,1.07,0,0,1,1-.89h27.83a1.87,1.87,0,0,0,1.83-1.55l2-11.23A1.25,1.25,0,0,0,482,0ZM429.38,10.17A2.18,2.18,0,0,0,429,8.5L422.47.69A2.14,2.14,0,0,0,420.91,0H383.15a1.87,1.87,0,0,0-1.83,1.55l-9.86,55.91S371.19,59,372.74,59h11.73a1.88,1.88,0,0,0,1.83-1.56l6-34.23,1.29-7.34a1.88,1.88,0,0,1,1.83-1.56h16.7a1.26,1.26,0,0,1,1.28,1.56l-1.29,7.34-6,34.23S405.84,59,407.39,59h11.82A1.88,1.88,0,0,0,421,57.46l7.6-43.13.17-.95.29-1.62.14-.83.14-.76ZM373.8,1.55A1.25,1.25,0,0,0,372.52,0H360.79A1.87,1.87,0,0,0,359,1.55L349.1,57.46S348.83,59,350.38,59h11.73a1.88,1.88,0,0,0,1.83-1.56L373.8,1.55Zm-22.37,0A1.25,1.25,0,0,0,350.15,0H338.42a1.88,1.88,0,0,0-1.83,1.55l-7.46,42.34a1.07,1.07,0,0,1-1,.88h-7.68a.71.71,0,0,1-.73-.88l7.47-42.34A1.25,1.25,0,0,0,325.87,0H315.24a1.87,1.87,0,0,0-1.83,1.55l-7.47,42.34a1.06,1.06,0,0,1-1,.88h-7.67a.71.71,0,0,1-.73-.88L304,1.55A1.25,1.25,0,0,0,302.68,0H291a1.88,1.88,0,0,0-1.83,1.55l-8.34,47.3a2.2,2.2,0,0,0,.4,1.67l6.46,7.8a2.12,2.12,0,0,0,1.55.7h41.9a3.11,3.11,0,0,0,1.8-.7l9.21-7.8a3.18,3.18,0,0,0,1-1.67l8.34-47.3Zm-69.73,0A1.25,1.25,0,0,0,280.42,0H247.07a3.13,3.13,0,0,0-1.8.69L236.06,8.5a3.18,3.18,0,0,0-1,1.67l-6.82,38.68a2.2,2.2,0,0,0,.4,1.67l6.46,7.8a2.12,2.12,0,0,0,1.55.7H270a1.88,1.88,0,0,0,1.83-1.56l2-11.14a1.25,1.25,0,0,0-1.28-1.55H244.69a.71.71,0,0,1-.73-.88l1.26-7.13a1.07,1.07,0,0,1,1-.89h23.61a1.87,1.87,0,0,0,1.83-1.55l1.68-9.54a1.25,1.25,0,0,0-1.28-1.55H248.49c-.88,0-.73-.89-.73-.89L249,15.22a1.06,1.06,0,0,1,1-.89h27.83a1.88,1.88,0,0,0,1.83-1.55l2-11.23Zm-53.54,8.62a2.2,2.2,0,0,0-.4-1.67L221.3.69A2.13,2.13,0,0,0,219.75,0H181.93a1.87,1.87,0,0,0-1.83,1.55l-9.86,55.91S170,59,171.52,59h37.82a3.17,3.17,0,0,0,1.8-.69l9.2-7.76a3.25,3.25,0,0,0,1-1.66l6.83-38.74Zm-15.58,4.16-5.36,30.44h-19.9l5.37-30.44Zm-43-4.16a2.2,2.2,0,0,0-.4-1.67L162.77.69A2.13,2.13,0,0,0,161.22,0H123.4a1.87,1.87,0,0,0-1.83,1.55l-2.25,12.78h31.13l5.94,6.92L148,28.16H116.88l-5.17,29.3S111.44,59,113,59h11.73a1.88,1.88,0,0,0,1.83-1.56l2.66-15.1A1.88,1.88,0,0,1,131,40.81h7.06a2.22,2.22,0,0,1,2,1.55l6.27,15.1A2.61,2.61,0,0,0,148.62,59h13.43s1.55,0,.89-1.56l-7.32-17.23c.1-.07,9.4-7.87,9.4-7.87a3.18,3.18,0,0,0,1-1.66l3.62-20.53Zm-56.73,0a2.2,2.2,0,0,0-.4-1.67L106,.69A2.13,2.13,0,0,0,104.49,0H75.32a3.17,3.17,0,0,0-1.8.69L64.31,8.5a3.25,3.25,0,0,0-1,1.67L55,57.46S54.71,59,56.26,59H68a1.88,1.88,0,0,0,1.83-1.56l2.67-15.1a1.87,1.87,0,0,1,1.83-1.55H91.1a1.25,1.25,0,0,1,1.28,1.55l-2.66,15.1S89.45,59,91,59h11.73a1.88,1.88,0,0,0,1.83-1.56l8.34-47.29ZM97.33,14.33,94.89,28.16H75l2.44-13.83ZM58,1.55A1.25,1.25,0,0,0,56.67,0H18.85a3.17,3.17,0,0,0-1.8.69L7.84,8.5a3.25,3.25,0,0,0-1,1.67L0,48.85a2.2,2.2,0,0,0,.4,1.67l6.46,7.8a2.12,2.12,0,0,0,1.55.7H37.55a3.18,3.18,0,0,0,1.81-.69l9.25-7.76a3.18,3.18,0,0,0,1-1.66l3.62-20.54s.27-1.56-1.28-1.56H40.13a1.88,1.88,0,0,0-1.83,1.56l-2.61,14.8v0a1.85,1.85,0,0,1-1.78,1.56H17.15a1.26,1.26,0,0,1-1.29-1.56v0l4.81-27.28a1.88,1.88,0,0,1,1.83-1.56H54.14A1.88,1.88,0,0,0,56,12.78L58,1.55Z"/></g></g></svg>